<?xml version="1.0" encoding="utf-8"?>
<!-- Generator: Adobe Illustrator 22.0.1, SVG Export Plug-In . SVG Version: 6.00 Build 0)  -->
<svg version="1.1" id="Livello_1" xmlns="http://www.w3.org/2000/svg" xmlns:xlink="http://www.w3.org/1999/xlink" x="0px" y="0px"
	 viewBox="0 0 52 79.7" style="enable-background:new 0 0 52 79.7;" xml:space="preserve">
<style type="text/css">
	.st0{fill:none;stroke:#0C0C0C;stroke-width:2;stroke-miterlimit:10;}
	.st1{fill:#FFFFFF;}
</style>
<path class="st0" d="M-71.7,95.6C-119.2-2-117-34.4-104.7-45c13.4-11.5,47.1-4.9,52.2,9c4.8,13.2-16.4,31.6-20.2,34.9
	c-18.6,16.2-40,19.2-49.7,19.9"/>
<g>
	<g>
		<path class="st1" d="M2.6,69.6c2.5-20.3,4.1-40.8,7.2-61C8.5,8.4,7.2,8.2,6,8c0.4,4.7,1,9.3,1.6,14c0.6,4.3,0.8,8.9,3.3,12.5
			c0.8,1.2,2.3,1.4,3.4,0.4c3.4-2.9,4-9.9,5.2-14c1.9-6.3,4.1-12.3,7.8-17.7c-1.2,0-2.5,0-3.7,0c1.5,2.8,0.8,6.6,0.6,9.6
			c-0.2,3-0.3,5.9-0.4,8.9c-0.2,6.3-0.3,12.6-0.2,18.8c0.1,12.1,0.3,24.2,2.1,36.2c0.3,2.3,4.1,1.7,4-0.5c-0.3-13.5-1.5-27-1.6-40.6
			c0-6.6,0.1-13.2,0.3-19.8c0.2-4.9,1.3-10.3-1.1-14.8c-0.8-1.5-2.8-1.3-3.7,0c-3,4.3-5.1,9-6.8,13.9c-0.8,2.4-1.5,4.8-2.2,7.3
			c-0.7,2.4-1.5,8-3.4,9.7c1.1,0.1,2.3,0.3,3.4,0.4C12.2,29,12.1,24,11.5,20c-0.6-4.2-1.1-8.3-1.7-12.5C9.4,5.2,6.2,6.1,6,8
			C3.5,28.4,0.7,49,0,69.6C-0.1,71.3,2.4,71.2,2.6,69.6L2.6,69.6z"/>
	</g>
</g>
<g>
	<g>
		<path class="st1" d="M37.8,35.7c-0.3-3.7-0.2-8.8-1.7-12.2c-0.5-1.3-1.4-2.4-2.9-2.5c-2.1-0.1-3.3,2.1-4.3,3.5
			c-2.2,3.4-4.1,7.1-5.6,10.8c-3.3,7.8-5.6,16-7.3,24.3c-0.8,3.8-1.3,7.7-1.4,11.7c-0.1,2.3-0.4,5.9,1.5,7.6
			c4.3,3.8,10.4-5.4,12.6-7.8c6.1-6.5,13-11.8,20.5-16.6c2.9-1.9,4.3-5.9-0.2-6.9c-2.7-0.6-6.4,1.1-8.9,2c-3.5,1.3-6.7,3-9.6,5.4
			c-1.7,1.5,0.5,3.9,2.3,3c4.4-2.2,8.8-3.8,13.2-5.8c0.3-0.1,2.8-0.6,1.9-1.6c-0.1-0.1-3.3,2.1-3.7,2.3c-1.9,1.3-3.8,2.6-5.7,4
			C35.3,59.4,32,62.1,29,65c-1.7,1.6-3.3,3.3-4.8,5c-1.3,1.4-4,5.6-5.4,3c-0.9-1.7,0.4-7,0.6-8.8c0.4-2.5,0.9-4.9,1.4-7.4
			c1-4.6,2.2-9.2,3.6-13.7c1.6-5.1,3.7-10.1,6.3-14.8c0.5-0.8,1-2.4,2.1-2.7c1.3-0.3,1,0.8,1.3,2.2c0.5,2.7,1,5.3,1.7,8
			C36,37.1,37.9,37,37.8,35.7L37.8,35.7z"/>
	</g>
</g>
</svg>
