<svg xmlns="http://www.w3.org/2000/svg" xmlns:xlink="http://www.w3.org/1999/xlink" preserveAspectRatio="xMidYMid meet" version="1.0" viewBox="0.0 -1.9 126.5 127.9" zoomAndPan="magnify" style="fill: rgb(255, 255, 255);" original_string_length="1896"><g id="__id143_sg9ga4rxk"><path d="M123.762,31.096c-0.925-12.244-4.87-21.055-11.727-26.189c-9.036-6.766-19.717-4.593-20.08-4.511 C91.258,0.483,75.35,2.803,76.648,31.871C55.27,11.93,43.094,22.195,42.631,22.605c-0.265,0.198-6.217,4.732-8.69,12.683 c-2.408-1.197-4.245-1.347-4.448-1.357c-0.457-0.062-11.272-1.441-19.774,5.979C3.27,45.537,0,54.614,0,66.89 c0,35.858,23.541,58.625,23.779,58.85c0.187,0.177,0.433,0.275,0.688,0.275c0.018,0,0.036,0,0.054-0.001 c0.324-0.018,32.681-2.056,56.288-29.228c2.218-2.553,4.078-5.082,5.604-7.583c9.222,2.203,15.984,2.336,17.41,2.336 c0.149,0,0.24-0.001,0.27-0.002c0.275-0.005,0.537-0.124,0.723-0.329C105.033,90.969,126.462,66.855,123.762,31.096z M79.3,95.474 c-21.561,24.815-50.57,28.167-54.452,28.509C22.097,121.193,2,99.669,2,66.89c0-11.661,3.033-20.226,9.016-25.458 c5.628-4.922,12.553-5.623,16.046-5.623c1.351,0,2.188,0.104,2.237,0.111c0.157,0.009,15.682,1.257,15.682,30.97 c0,0.417,0.259,0.791,0.65,0.937c0.387,0.146,0.831,0.034,1.104-0.281c19.48-22.42,31.759-13.565,32.338-13.131 c0.087,0.056,8.696,5.702,10.147,15.862C90.343,78.129,87.005,86.606,79.3,95.474z M103.618,89.536 c-1.665-0.019-7.91-0.229-16.16-2.141c3.279-6.006,4.544-11.84,3.739-17.427c-1.595-11.073-10.66-16.991-10.974-17.188 c-0.554-0.427-13.457-9.93-33.282,11.537c-0.53-17.357-6.421-24.805-11.217-27.998c2.196-7.586,8.046-12.068,8.162-12.159 c0.483-0.419,12.094-10.003,33.21,10.917c0.297,0.293,0.746,0.373,1.123,0.197c0.379-0.175,0.609-0.567,0.578-0.983 C76.571,4.806,91.566,2.465,92.285,2.367c0.103-0.022,10.274-2.071,18.571,4.156c6.361,4.775,10.032,13.094,10.911,24.724 C124.232,63.882,106.126,86.567,103.618,89.536z" style="fill: inherit;"/></g></svg>