{
  "accessors": [
    {
      "bufferView": 2,
      "componentType": 5126,
      "count": 20970,
      "max": [
        0.12015331536531448,
        0.090632326900959015,
        0.30679643154144287
      ],
      "min": [
        -0.18764829635620117,
        -0.090342596173286438,
        -0.26535817980766296
      ],
      "type": "VEC3"
    },
    {
      "bufferView": 2,
      "byteOffset": 251640,
      "componentType": 5126,
      "count": 20970,
      "max": [
        0.99999964237213135,
        0.99999868869781494,
        0.9999992847442627
      ],
      "min": [
        -1,
        -0.99999475479125977,
        -0.99999773502349854
      ],
      "type": "VEC3"
    },
    {
      "bufferView": 0,
      "componentType": 5125,
      "count": 125808,
      "max": [
        20969
      ],
      "min": [
        0
      ],
      "type": "SCALAR"
    },
    {
      "bufferView": 2,
      "byteOffset": 503280,
      "componentType": 5126,
      "count": 34506,
      "max": [
        0.22345080971717834,
        0.089525647461414337,
        0.2738443911075592
      ],
      "min": [
        -0.23895314335823059,
        -0.088761433959007263,
        -0.30504980683326721
      ],
      "type": "VEC3"
    },
    {
      "bufferView": 2,
      "byteOffset": 917352,
      "componentType": 5126,
      "count": 34506,
      "max": [
        0.99998629093170166,
        0.99998605251312256,
        0.99999988079071045
      ],
      "min": [
        -0.99999594688415527,
        -0.99999153614044189,
        -0.99998307228088379
      ],
      "type": "VEC3"
    },
    {
      "bufferView": 0,
      "byteOffset": 503232,
      "componentType": 5125,
      "count": 207024,
      "max": [
        34505
      ],
      "min": [
        0
      ],
      "type": "SCALAR"
    },
    {
      "bufferView": 2,
      "byteOffset": 1331424,
      "componentType": 5126,
      "count": 34834,
      "max": [
        0.22427582740783691,
        0.088536880910396576,
        0.29514065384864807
      ],
      "min": [
        -0.25025686621665955,
        -0.088656239211559296,
        -0.28671818971633911
      ],
      "type": "VEC3"
    },
    {
      "bufferView": 2,
      "byteOffset": 1749432,
      "componentType": 5126,
      "count": 34834,
      "max": [
        0.999961256980896,
        0.99999868869781494,
        0.99999880790710449
      ],
      "min": [
        -0.99999773502349854,
        -0.99999558925628662,
        -0.99999749660491943
      ],
      "type": "VEC3"
    },
    {
      "bufferView": 0,
      "byteOffset": 1331328,
      "componentType": 5125,
      "count": 208992,
      "max": [
        34833
      ],
      "min": [
        0
      ],
      "type": "SCALAR"
    },
    {
      "bufferView": 2,
      "byteOffset": 2167440,
      "componentType": 5126,
      "count": 30240,
      "max": [
        0.23905748128890991,
        0.093207657337188721,
        0.27214786410331726
      ],
      "min": [
        -0.28984472155570984,
        -0.092979617416858673,
        -0.30176767706871033
      ],
      "type": "VEC3"
    },
    {
      "bufferView": 2,
      "byteOffset": 2530320,
      "componentType": 5126,
      "count": 30240,
      "max": [
        0.99999535083770752,
        0.9999929666519165,
        0.99999988079071045
      ],
      "min": [
        -0.99998795986175537,
        -0.99998033046722412,
        -0.99999105930328369
      ],
      "type": "VEC3"
    },
    {
      "bufferView": 0,
      "byteOffset": 2167296,
      "componentType": 5125,
      "count": 181440,
      "max": [
        30239
      ],
      "min": [
        0
      ],
      "type": "SCALAR"
    },
    {
      "bufferView": 2,
      "byteOffset": 2893200,
      "componentType": 5126,
      "count": 24041,
      "max": [
        0.2284151166677475,
        0.092314332723617554,
        0.29082944989204407
      ],
      "min": [
        -0.24372488260269165,
        -0.091682493686676025,
        -0.2840021550655365
      ],
      "type": "VEC3"
    },
    {
      "bufferView": 2,
      "byteOffset": 3181692,
      "componentType": 5126,
      "count": 24041,
      "max": [
        0.99997556209564209,
        0.99999570846557617,
        0.99999916553497314
      ],
      "min": [
        -0.99991774559020996,
        -0.99999809265136719,
        -0.99999797344207764
      ],
      "type": "VEC3"
    },
    {
      "bufferView": 0,
      "byteOffset": 2893056,
      "componentType": 5125,
      "count": 144234,
      "max": [
        24040
      ],
      "min": [
        0
      ],
      "type": "SCALAR"
    },
    {
      "bufferView": 2,
      "byteOffset": 3470184,
      "componentType": 5126,
      "count": 23124,
      "max": [
        0.23189203441143036,
        0.094682097434997559,
        0.29761585593223572
      ],
      "min": [
        -0.24685302376747131,
        -0.094274342060089111,
        -0.29175212979316711
      ],
      "type": "VEC3"
    },
    {
      "bufferView": 2,
      "byteOffset": 3747672,
      "componentType": 5126,
      "count": 23124,
      "max": [
        0.99992871284484863,
        0.99999463558197021,
        0.99999845027923584
      ],
      "min": [
        -0.9999309778213501,
        -0.99999964237213135,
        -0.99999558925628662
      ],
      "type": "VEC3"
    },
    {
      "bufferView": 0,
      "byteOffset": 3469992,
      "componentType": 5125,
      "count": 138756,
      "max": [
        23123
      ],
      "min": [
        0
      ],
      "type": "SCALAR"
    },
    {
      "bufferView": 2,
      "byteOffset": 4025160,
      "componentType": 5126,
      "count": 27802,
      "max": [
        0.23823429644107819,
        0.090707927942276001,
        0.32222160696983337
      ],
      "min": [
        -0.21170622110366821,
        -0.090588212013244629,
        -0.24806316196918488
      ],
      "type": "VEC3"
    },
    {
      "bufferView": 2,
      "byteOffset": 4358784,
      "componentType": 5126,
      "count": 27802,
      "max": [
        0.99998557567596436,
        0.99999845027923584,
        0.99999964237213135
      ],
      "min": [
        -0.99995827674865723,
        -0.99999785423278809,
        -0.99999165534973145
      ],
      "type": "VEC3"
    },
    {
      "bufferView": 0,
      "byteOffset": 4025016,
      "componentType": 5125,
      "count": 166800,
      "max": [
        27801
      ],
      "min": [
        0
      ],
      "type": "SCALAR"
    },
    {
      "bufferView": 2,
      "byteOffset": 4692408,
      "componentType": 5126,
      "count": 35194,
      "max": [
        0.23220483958721161,
        0.085375674068927765,
        0.28411555290222168
      ],
      "min": [
        -0.23241691291332245,
        -0.085701592266559601,
        -0.29154834151268005
      ],
      "type": "VEC3"
    },
    {
      "bufferView": 2,
      "byteOffset": 5114736,
      "componentType": 5126,
      "count": 35194,
      "max": [
        0.99999046325683594,
        0.99999642372131348,
        0.99999237060546875
      ],
      "min": [
        -0.99995791912078857,
        -0.99999749660491943,
        -0.99999010562896729
      ],
      "type": "VEC3"
    },
    {
      "bufferView": 0,
      "byteOffset": 4692216,
      "componentType": 5125,
      "count": 211176,
      "max": [
        35193
      ],
      "min": [
        0
      ],
      "type": "SCALAR"
    },
    {
      "bufferView": 2,
      "byteOffset": 5537064,
      "componentType": 5126,
      "count": 23398,
      "max": [
        0.24800696969032288,
        0.098111644387245178,
        0.29220929741859436
      ],
      "min": [
        -0.23202601075172424,
        -0.099186018109321594,
        -0.29839470982551575
      ],
      "type": "VEC3"
    },
    {
      "bufferView": 2,
      "byteOffset": 5817840,
      "componentType": 5126,
      "count": 23398,
      "max": [
        0.99998378753662109,
        0.99999034404754639,
        0.99996030330657959
      ],
      "min": [
        -0.99989163875579834,
        -0.99998462200164795,
        -0.99994206428527832
      ],
      "type": "VEC3"
    },
    {
      "bufferView": 0,
      "byteOffset": 5536920,
      "componentType": 5125,
      "count": 140400,
      "max": [
        23397
      ],
      "min": [
        0
      ],
      "type": "SCALAR"
    },
    {
      "bufferView": 2,
      "byteOffset": 6098616,
      "componentType": 5126,
      "count": 34536,
      "max": [
        0.26529929041862488,
        0.092064075171947479,
        0.29488354921340942
      ],
      "min": [
        -0.26633533835411072,
        -0.092458263039588928,
        -0.2947719395160675
      ],
      "type": "VEC3"
    },
    {
      "bufferView": 2,
      "byteOffset": 6513048,
      "componentType": 5126,
      "count": 34536,
      "max": [
        0.99996662139892578,
        0.99999046325683594,
        0.99987757205963135
      ],
      "min": [
        -0.99995291233062744,
        -0.99999582767486572,
        -0.99994933605194092
      ],
      "type": "VEC3"
    },
    {
      "bufferView": 0,
      "byteOffset": 6098520,
      "componentType": 5125,
      "count": 207216,
      "max": [
        34535
      ],
      "min": [
        0
      ],
      "type": "SCALAR"
    },
    {
      "bufferView": 2,
      "byteOffset": 6927480,
      "componentType": 5126,
      "count": 4,
      "max": [
        1,
        0,
        1
      ],
      "min": [
        -1,
        0,
        -1
      ],
      "type": "VEC3"
    },
    {
      "bufferView": 2,
      "byteOffset": 6927528,
      "componentType": 5126,
      "count": 4,
      "max": [
        0,
        1,
        -0
      ],
      "min": [
        0,
        1,
        -0
      ],
      "type": "VEC3"
    },
    {
      "bufferView": 1,
      "componentType": 5126,
      "count": 4,
      "max": [
        1,
        1
      ],
      "min": [
        0,
        0
      ],
      "type": "VEC2"
    },
    {
      "bufferView": 0,
      "byteOffset": 6927384,
      "componentType": 5125,
      "count": 6,
      "max": [
        3
      ],
      "min": [
        0
      ],
      "type": "SCALAR"
    }
  ],
  "asset": {
    "extras": {
      "author": "Iimaginibus (https://sketchfab.com/Iimaginibus)",
      "license": "CC-BY-4.0 (http://creativecommons.org/licenses/by/4.0/)",
      "source": "https://sketchfab.com/3d-models/birthday-balloons-numbers-16632cdfe1054f1bb2b4b9124417f093",
      "title": "Birthday Balloons numbers"
    },
    "generator": "Sketchfab-7.57.0",
    "version": "2.0"
  },
  "bufferViews": [
    {
      "buffer": 0,
      "byteLength": 6927408,
      "byteOffset": 0,
      "name": "floatBufferViews",
      "target": 34963
    },
    {
      "buffer": 0,
      "byteLength": 32,
      "byteOffset": 6927408,
      "byteStride": 8,
      "name": "floatBufferViews",
      "target": 34962
    },
    {
      "buffer": 0,
      "byteLength": 6927576,
      "byteOffset": 6927440,
      "byteStride": 12,
      "name": "floatBufferViews",
      "target": 34962
    }
  ],
  "buffers": [
    {
      "byteLength": 13855016,
      "uri": "scene.bin"
    }
  ],
  "materials": [
    {
      "doubleSided": true,
      "emissiveFactor": [
        0,
        0,
        0
      ],
      "name": "Material.002",
      "pbrMetallicRoughness": {
        "baseColorFactor": [
          1,
          1,
          1,
          1
        ],
        "metallicFactor": 1,
        "roughnessFactor": 0.18181800000000001
      }
    },
    {
      "doubleSided": true,
      "emissiveFactor": [
        0,
        0,
        0
      ],
      "name": "Material.001",
      "pbrMetallicRoughness": {
        "baseColorFactor": [
          0.0113221,
          0.0113221,
          0.0113221,
          1
        ],
        "metallicFactor": 0,
        "roughnessFactor": 0.62727299999999997
      }
    }
  ],
  "meshes": [
    {
      "primitives": [
        {
          "attributes": {
            "NORMAL": 1,
            "POSITION": 0
          },
          "indices": 2,
          "material": 0,
          "mode": 4
        }
      ]
    },
    {
      "primitives": [
        {
          "attributes": {
            "NORMAL": 4,
            "POSITION": 3
          },
          "indices": 5,
          "material": 0,
          "mode": 4
        }
      ]
    },
    {
      "primitives": [
        {
          "attributes": {
            "NORMAL": 7,
            "POSITION": 6
          },
          "indices": 8,
          "material": 0,
          "mode": 4
        }
      ]
    },
    {
      "primitives": [
        {
          "attributes": {
            "NORMAL": 10,
            "POSITION": 9
          },
          "indices": 11,
          "material": 0,
          "mode": 4
        }
      ]
    },
    {
      "primitives": [
        {
          "attributes": {
            "NORMAL": 13,
            "POSITION": 12
          },
          "indices": 14,
          "material": 0,
          "mode": 4
        }
      ]
    },
    {
      "primitives": [
        {
          "attributes": {
            "NORMAL": 16,
            "POSITION": 15
          },
          "indices": 17,
          "material": 0,
          "mode": 4
        }
      ]
    },
    {
      "primitives": [
        {
          "attributes": {
            "NORMAL": 19,
            "POSITION": 18
          },
          "indices": 20,
          "material": 0,
          "mode": 4
        }
      ]
    },
    {
      "primitives": [
        {
          "attributes": {
            "NORMAL": 22,
            "POSITION": 21
          },
          "indices": 23,
          "material": 0,
          "mode": 4
        }
      ]
    },
    {
      "primitives": [
        {
          "attributes": {
            "NORMAL": 25,
            "POSITION": 24
          },
          "indices": 26,
          "material": 0,
          "mode": 4
        }
      ]
    },
    {
      "primitives": [
        {
          "attributes": {
            "NORMAL": 28,
            "POSITION": 27
          },
          "indices": 29,
          "material": 0,
          "mode": 4
        }
      ]
    },
    {
      "primitives": [
        {
          "attributes": {
            "NORMAL": 31,
            "POSITION": 30,
            "TEXCOORD_0": 32
          },
          "indices": 33,
          "material": 1,
          "mode": 4
        }
      ]
    }
  ],
  "nodes": [
    {
      "children": [
        1
      ],
      "name": "RootNode (gltf orientation matrix)",
      "rotation": [
        -0.70710678118654746,
        -0,
        -0,
        0.70710678118654757
      ]
    },
    {
      "children": [
        2
      ],
      "name": "RootNode (model correction matrix)"
    },
    {
      "children": [
        3
      ],
      "name": "root"
    },
    {
      "children": [
        4,
        6,
        8,
        10,
        12,
        14,
        16,
        18,
        20,
        22,
        24
      ],
      "matrix": [
        1,
        0,
        0,
        0,
        0,
        2.2204460492503131e-16,
        1,
        0,
        0,
        -1,
        2.2204460492503131e-16,
        0,
        0,
        0,
        0,
        1
      ],
      "name": "GLTF_SceneRootNode"
    },
    {
      "children": [
        5
      ],
      "matrix": [
        -2.9802322387695312e-08,
        2.9802323275873732e-08,
        -0.99999999999999911,
        0,
        0.99999999999999911,
        -2.9802322387695312e-08,
        -2.9802323275873732e-08,
        0,
        -2.9802323275873732e-08,
        -0.99999999999999911,
        -2.9802322387695312e-08,
        0,
        0.026082159951329231,
        0.46094152331352234,
        -0.5861048698425293,
        1
      ],
      "name": "Text_2"
    },
    {
      "mesh": 0,
      "name": ""
    },
    {
      "children": [
        7
      ],
      "matrix": [
        -2.9802322387695312e-08,
        2.9802323275873732e-08,
        -0.99999999999999911,
        0,
        0.99999999999999911,
        -2.9802322387695312e-08,
        -2.9802323275873732e-08,
        0,
        -2.9802323275873732e-08,
        -0.99999999999999911,
        -2.9802322387695312e-08,
        0,
        0.026082159951329231,
        0.44011032581329346,
        -0.98966431617736816,
        1
      ],
      "name": "Text.001_3"
    },
    {
      "mesh": 1,
      "name": ""
    },
    {
      "children": [
        9
      ],
      "matrix": [
        -2.9802322387695312e-08,
        2.9802323275873732e-08,
        -0.99999999999999911,
        0,
        0.99999999999999911,
        -2.9802322387695312e-08,
        -2.9802323275873732e-08,
        0,
        -2.9802323275873732e-08,
        -0.99999999999999911,
        -2.9802322387695312e-08,
        0,
        0.026082159951329231,
        0.43490254878997803,
        -1.4896643161773682,
        1
      ],
      "name": "Text.002_4"
    },
    {
      "mesh": 2,
      "name": ""
    },
    {
      "children": [
        11
      ],
      "matrix": [
        -2.9802322387695312e-08,
        2.9802323275873732e-08,
        -0.99999999999999911,
        0,
        0.99999999999999911,
        -2.9802322387695312e-08,
        -2.9802323275873732e-08,
        0,
        -2.9802323275873732e-08,
        -0.99999999999999911,
        -2.9802322387695312e-08,
        0,
        0.026082159951329231,
        0.42969474196434021,
        -2.0052876472473145,
        1
      ],
      "name": "Text.003_5"
    },
    {
      "mesh": 3,
      "name": ""
    },
    {
      "children": [
        13
      ],
      "matrix": [
        -2.9802322387695312e-08,
        2.9802323275873732e-08,
        -0.99999999999999911,
        0,
        0.99999999999999911,
        -2.9802322387695312e-08,
        -2.9802323275873732e-08,
        0,
        -2.9802323275873732e-08,
        -0.99999999999999911,
        -2.9802322387695312e-08,
        0,
        0.026082159951329231,
        0.45052593946456909,
        -2.5052876472473145,
        1
      ],
      "name": "Text.004_6"
    },
    {
      "mesh": 4,
      "name": ""
    },
    {
      "children": [
        15
      ],
      "matrix": [
        -2.9802322387695312e-08,
        2.9802323275873732e-08,
        -0.99999999999999911,
        0,
        0.99999999999999911,
        -2.9802322387695312e-08,
        -2.9802323275873732e-08,
        0,
        -2.9802323275873732e-08,
        -0.99999999999999911,
        -2.9802322387695312e-08,
        0,
        0.026082159951329231,
        0.46094152331352234,
        -3.0261189937591553,
        1
      ],
      "name": "Text.005_7"
    },
    {
      "mesh": 5,
      "name": ""
    },
    {
      "children": [
        17
      ],
      "matrix": [
        -2.9802322387695312e-08,
        2.9802323275873732e-08,
        -0.99999999999999911,
        0,
        0.99999999999999911,
        -2.9802322387695312e-08,
        -2.9802323275873732e-08,
        0,
        -2.9802323275873732e-08,
        -0.99999999999999911,
        -2.9802322387695312e-08,
        0,
        0.026082159951329231,
        0.4973960816860199,
        -3.510495662689209,
        1
      ],
      "name": "Text.006_8"
    },
    {
      "mesh": 6,
      "name": ""
    },
    {
      "children": [
        19
      ],
      "matrix": [
        -2.9802322387695312e-08,
        2.9802323275873732e-08,
        -0.99999999999999911,
        0,
        0.99999999999999911,
        -2.9802322387695312e-08,
        -2.9802323275873732e-08,
        0,
        -2.9802323275873732e-08,
        -0.99999999999999911,
        -2.9802322387695312e-08,
        0,
        0.026082159951329231,
        0.46094152331352234,
        -3.9896645545959473,
        1
      ],
      "name": "Text.007_9"
    },
    {
      "mesh": 7,
      "name": ""
    },
    {
      "children": [
        21
      ],
      "matrix": [
        -2.9802322387695312e-08,
        2.9802323275873732e-08,
        -0.99999999999999911,
        0,
        0.99999999999999911,
        -2.9802322387695312e-08,
        -2.9802323275873732e-08,
        0,
        -2.9802323275873732e-08,
        -0.99999999999999911,
        -2.9802322387695312e-08,
        0,
        0.026082159951329231,
        0.46094152331352234,
        -4.4606170654296875,
        1
      ],
      "name": "Text.008_10"
    },
    {
      "mesh": 8,
      "name": ""
    },
    {
      "children": [
        23
      ],
      "matrix": [
        -2.9802322387695312e-08,
        2.9802323275873732e-08,
        -0.99999999999999911,
        0,
        0.99999999999999911,
        -2.9802322387695312e-08,
        -2.9802323275873732e-08,
        0,
        -2.9802323275873732e-08,
        -0.99999999999999911,
        -2.9802322387695312e-08,
        0,
        0.026082159951329231,
        0.46094152331352234,
        -4.9896640777587891,
        1
      ],
      "name": "Text.009_11"
    },
    {
      "mesh": 9,
      "name": ""
    },
    {
      "children": [
        25
      ],
      "matrix": [
        4.2146847401003384e-07,
        -4.9999999999999831,
        -0,
        0,
        4.9999999999999831,
        4.2146847401003384e-07,
        0,
        0,
        0,
        -0,
        5,
        0,
        -0.073728814721107483,
        -0.0097414255142211914,
        -2.4187963008880615,
        1
      ],
      "name": "Plane_12"
    },
    {
      "mesh": 10,
      "name": ""
    }
  ],
  "scene": 0,
  "scenes": [
    {
      "name": "OSG_Scene",
      "nodes": [
        0
      ]
    }
  ]
}

